<?xml version="1.0" encoding="UTF-8" standalone="no"?>
<svg
   xmlns:dc="http://purl.org/dc/elements/1.1/"
   xmlns:cc="http://creativecommons.org/ns#"
   xmlns:rdf="http://www.w3.org/1999/02/22-rdf-syntax-ns#"
   xmlns:svg="http://www.w3.org/2000/svg"
   xmlns="http://www.w3.org/2000/svg"
   id="svg8"
   version="1.1"
   viewBox="0 0 68.184526 113.47024"
   height="113.47024mm"
   width="68.184525mm">
  <defs
     id="defs2" />
  <metadata
     id="metadata5">
    <rdf:RDF>
      <cc:Work
         rdf:about="">
        <dc:format>image/svg+xml</dc:format>
        <dc:type
           rdf:resource="http://purl.org/dc/dcmitype/StillImage" />
        <dc:title></dc:title>
      </cc:Work>
    </rdf:RDF>
  </metadata>
  <g
     transform="translate(-23.7747,1.6013728)"
     id="layer1">
    <g
       id="g4104"
       transform="matrix(5.2449634,0,0,5.1577382,23.7747,-1.6013728)">
      <path
         id="path3712"
         d="M 0,0.5 V 0 H 0.5 1 L 1.125,0.375 Q 1.25,0.75 1.5,0.75 1.75,0.75 1.875,0.375 L 2,0 H 2.5 3 L 2.875,0.375 Q 2.75,0.75 2.5,1 2.25,1.25 2,1.5 1.75,1.75 1.5,2 1.25,2.25 1.125,2.625 L 1,3 V 3.5 4 4.5 5 5.5 6 6.5 7 L 1.125,7.375 Q 1.25,7.75 1.5,8 1.75,8.25 2,8.5 2.25,8.75 2.5,9 2.75,9.25 3,9.5 3.25,9.75 3.5,10 q 0.25,0.25 0.25,0.5 0,0.25 -0.375,0.375 L 3,11 2.625,10.875 Q 2.25,10.75 2,10.5 1.75,10.25 1.375,10.125 L 1,10 H 0.5 0 V 9.5 9 L 0.375,8.875 Q 0.75,8.75 0.75,8.5 0.75,8.25 0.375,8.125 L 0,8 V 7.5 7 6.5 6 5.5 5 4.5 4 3.5 3 2.5 2 L 0.375,1.875 Q 0.75,1.75 0.75,1.5 0.75,1.25 0.375,1.125 L 0,1 V 0.5"
         style="fill:#000000;fill-opacity:0" />
      <path
         id="path3714"
         d="M 1.125,0.375 1,0 H 1.5 2 L 1.875,0.375 Q 1.75,0.75 1.5,0.75 1.25,0.75 1.125,0.375"
         style="fill:#000000;fill-opacity:0.00392157" />
      <path
         id="path3716"
         d="M 2.875,0.375 3,0 H 3.5 4 V 0.5 1 L 3.625,1.125 3.25,1.25 3.53125,1.15625 3.8125,1.0625 3.625,1.125 Q 3.4375,1.1875 3.3125,1.3125 L 3.1875,1.4375 3.25,1.375 3.3125,1.3125 3.015625,1.015625 2.71875,0.71875 2.671875,0.796875 2.625,0.875 2.71875,0.71875 Q 2.8125,0.5625 2.875,0.375 L 2.9375,0.1875 2.84375,0.46875 2.75,0.75 2.875,0.375"
         style="fill:#2b2b63;fill-opacity:0.07058824" />
      <path
         id="path3718"
         d="M 4,0.5 V 0 H 4.5 5 V 0.5 1 H 4.5 4 V 0.5"
         style="fill:#2b2f61;fill-opacity:0.27843137" />
      <path
         id="path3720"
         d="M 5,0.5 V 0 H 5.5 6 V 0.5 1 H 5.5 5 V 0.5"
         style="fill:#2c2e61;fill-opacity:0.41176471" />
      <path
         id="path3722"
         d="M 6,0.5 V 0 H 6.5 7 V 0.5 1 H 6.5 6 V 0.5"
         style="fill:#2b3061;fill-opacity:0.4627451" />
      <path
         id="path3724"
         d="M 7,0.5 V 0 H 7.5 8 V 0.5 1 H 7.5 7 V 0.5"
         style="fill:#2c2e61;fill-opacity:0.41176471" />
      <path
         id="path3726"
         d="M 8,0.5 V 0 H 8.5 9 V 0.5 1 H 8.5 8 V 0.5"
         style="fill:#2b2f61;fill-opacity:0.27843137" />
      <path
         id="path3728"
         d="M 9,0.5 V 0 H 9.5 10 L 10.125,0.375 10.25,0.75 10.15625,0.46875 10.0625,0.1875 10.125,0.375 q 0.0625,0.1875 0.15625,0.34375 L 10.375,0.875 10.328125,0.796875 10.28125,0.71875 9.984375,1.015625 9.6875,1.3125 9.75,1.375 9.8125,1.4375 9.6875,1.3125 Q 9.5625,1.1875 9.375,1.125 L 9.1875,1.0625 9.46875,1.15625 9.75,1.25 9.375,1.125 9,1 V 0.5"
         style="fill:#2b2b63;fill-opacity:0.07058824" />
      <path
         id="path3730"
         d="M 10.125,0.375 10,0 h 0.5 0.5 l 0.125,0.375 Q 11.25,0.75 11.5,0.75 q 0.25,0 0.375,-0.375 L 12,0 H 12.5 13 V 0.5 1 L 12.625,1.125 Q 12.25,1.25 12.25,1.5 q 0,0.25 0.375,0.375 L 13,2 V 2.5 3 3.5 4 4.5 5 5.5 6 6.5 7 7.5 8 L 12.625,8.125 Q 12.25,8.25 12.25,8.5 q 0,0.25 0.375,0.375 L 13,9 V 9.5 10 H 12.5 Q 12,10 11.625,10.125 11.25,10.25 11,10.5 10.75,10.75 10.375,10.875 L 10,11 9.625,10.875 Q 9.25,10.75 9.25,10.5 9.25,10.25 9.5,10 9.75,9.75 10,9.5 10.25,9.25 10.5,9 10.75,8.75 11,8.5 11.25,8.25 11.5,8 11.75,7.75 11.875,7.375 L 12,7 V 6.5 6 5.5 5 4.5 4 3.5 3 L 11.875,2.625 Q 11.75,2.25 11.5,2 11.25,1.75 11,1.5 10.75,1.25 10.5,1 10.25,0.75 10.125,0.375"
         style="fill:#000000;fill-opacity:0" />
      <path
         id="path3732"
         d="M 11.125,0.375 11,0 H 11.5 12 L 11.875,0.375 Q 11.75,0.75 11.5,0.75 q -0.25,0 -0.375,-0.375"
         style="fill:#000000;fill-opacity:0.00392157" />
      <path
         id="path3734"
         d="M 0,1.5 V 1 L 0.375,1.125 Q 0.75,1.25 0.75,1.5 0.75,1.75 0.375,1.875 L 0,2 V 1.5"
         style="fill:#000080;fill-opacity:0.00784314" />
      <path
         id="path3736"
         d="M 2,1.5 Q 2.25,1.25 2.5,1 L 2.75,0.75 2.5625,0.9375 2.375,1.125 2.5,1 Q 2.625,0.875 2.71875,0.71875 L 2.8125,0.5625 2.765625,0.640625 2.71875,0.71875 3.015625,1.015625 3.3125,1.3125 3.375,1.25 3.4375,1.1875 3.3125,1.3125 Q 3.1875,1.4375 3.125,1.625 L 3.0625,1.8125 3.15625,1.53125 3.25,1.25 3.125,1.625 3,2 2.625,2.125 2.25,2.25 2.53125,2.15625 2.8125,2.0625 2.625,2.125 Q 2.4375,2.1875 2.3125,2.3125 L 2.1875,2.4375 2.25,2.375 2.3125,2.3125 2.03125,2.03125 1.75,1.75 2,1.5 M 1.9375,1.5625 1.75,1.75 1.6875,1.8125 1.625,1.875 1.75,1.75 Q 1.875,1.625 2,1.5 L 2.125,1.375 1.9375,1.5625"
         style="fill:#29295c;fill-opacity:0.09803922" />
      <path
         id="path3738"
         d="M 3.125,1.625 Q 3.25,1.25 3.625,1.125 L 4,1 V 1.5 2 H 3.5 3 L 3.125,1.625"
         style="fill:#2b3060;fill-opacity:0.39607843" />
      <path
         id="path3740"
         d="M 4,1.5 V 1 H 4.5 5 5.5 6 6.5 7 7.5 8 8.5 9 V 1.5 2 H 8.5 8 7.5 7 6.5 6 5.5 5 4.5 4 V 1.5"
         style="fill:#2b2f62;fill-opacity:0.49019608" />
      <path
         id="path3742"
         d="M 9,1.5 V 1 l 0.375,0.125 q 0.375,0.125 0.5,0.5 L 10,2 H 9.5 9 V 1.5"
         style="fill:#2b3061;fill-opacity:0.39215686" />
      <path
         id="path3744"
         d="M 9.875,1.625 9.75,1.25 9.84375,1.53125 9.9375,1.8125 9.875,1.625 Q 9.8125,1.4375 9.6875,1.3125 L 9.5625,1.1875 9.625,1.25 9.6875,1.3125 9.984375,1.015625 10.28125,0.71875 10.234375,0.640625 10.1875,0.5625 10.28125,0.71875 Q 10.375,0.875 10.5,1 L 10.625,1.125 10.4375,0.9375 10.25,0.75 10.5,1 Q 10.75,1.25 11,1.5 L 11.25,1.75 10.984375,2.015625 10.71875,2.28125 10.796875,2.328125 10.875,2.375 10.71875,2.28125 Q 10.5625,2.1875 10.375,2.125 L 10.1875,2.0625 10.46875,2.15625 10.75,2.25 10.375,2.125 10,2 9.875,1.625 M 11.3125,1.8125 11.25,1.75 11.0625,1.5625 10.875,1.375 11,1.5 q 0.125,0.125 0.25,0.25 l 0.125,0.125 -0.0625,-0.0625"
         style="fill:#29295c;fill-opacity:0.09803922" />
      <path
         id="path3746"
         d="m 12.25,1.5 q 0,-0.25 0.375,-0.375 L 13,1 V 1.5 2 L 12.625,1.875 Q 12.25,1.75 12.25,1.5"
         style="fill:#000080;fill-opacity:0.00784314" />
      <path
         id="path3748"
         d="M 1.125,2.625 Q 1.25,2.25 1.5,2 L 1.75,1.75 2.03125,2.03125 2.3125,2.3125 2.375,2.25 2.4375,2.1875 2.3125,2.3125 Q 2.1875,2.4375 2.125,2.625 L 2.0625,2.8125 2.15625,2.53125 2.25,2.25 2.125,2.625 2,3 H 1.5 1 L 1.125,2.625 M 1.8125,1.6875 1.75,1.75 1.5625,1.9375 1.375,2.125 1.5,2 Q 1.625,1.875 1.75,1.75 L 1.875,1.625 1.8125,1.6875"
         style="fill:#202060;fill-opacity:0.03137255" />
      <path
         id="path3750"
         d="M 2.125,2.625 Q 2.25,2.25 2.625,2.125 L 3,2 V 2.5 3 H 2.5 2 L 2.125,2.625"
         style="fill:#2b3060;fill-opacity:0.35294118" />
      <path
         id="path3752"
         d="M 3,2.5 V 2 H 3.5 4 V 2.5 3 3.5 4 H 3.5 3 V 3.5 3 2.5"
         style="fill:#2b2f62;fill-opacity:0.49019608" />
      <path
         id="path3754"
         d="M 4,2.5 V 2 H 4.5 5 V 2.5 3 H 4.5 4 V 2.5"
         style="fill:#2b2f61;fill-opacity:0.48627451" />
      <path
         id="path3756"
         d="M 5,2.5 V 2 H 5.5 6 L 5.875,2.375 Q 5.75,2.75 5.375,2.875 L 5,3 V 2.5"
         style="fill:#2a305f;fill-opacity:0.35686275" />
      <path
         id="path3758"
         d="M 5.875,2.375 6,2 H 6.5 7 L 7.125,2.375 7.25,2.75 7.15625,2.46875 7.0625,2.1875 7.125,2.375 Q 7.1875,2.5625 7.3125,2.6875 L 7.4375,2.8125 7.375,2.75 7.3125,2.6875 7.03125,3 6.75,3.3125 6.8125,3.34375 6.875,3.375 6.75,3.3125 Q 6.625,3.25 6.5,3.25 H 6.375 6.5625 6.75 6.5 6.25 6.4375 6.625 6.5 q -0.125,0 -0.25,0.0625 L 6.125,3.375 6.1875,3.34375 6.25,3.3125 5.96875,3 5.6875,2.6875 5.625,2.75 5.5625,2.8125 5.6875,2.6875 Q 5.8125,2.5625 5.875,2.375 L 5.9375,2.1875 5.84375,2.46875 5.75,2.75 5.875,2.375"
         style="fill:#292d5e;fill-opacity:0.26666667" />
      <path
         id="path3760"
         d="M 7.125,2.375 7,2 H 7.5 8 V 2.5 3 L 7.625,2.875 Q 7.25,2.75 7.125,2.375"
         style="fill:#2a305f;fill-opacity:0.35686275" />
      <path
         id="path3762"
         d="M 8,2.5 V 2 H 8.5 9 V 2.5 3 H 8.5 8 V 2.5"
         style="fill:#2b2f61;fill-opacity:0.48627451" />
      <path
         id="path3764"
         d="M 9,2.5 V 2 H 9.5 10 V 2.5 3 3.5 4 H 9.5 9 V 3.5 3 2.5"
         style="fill:#2b2f62;fill-opacity:0.49019608" />
      <path
         id="path3766"
         d="M 10,2.5 V 2 l 0.375,0.125 Q 10.75,2.25 11,2.5 L 11.25,2.75 11.0625,2.5625 10.875,2.375 11,2.5 q 0.125,0.125 0.28125,0.21875 L 11.4375,2.8125 11.359375,2.765625 11.28125,2.71875 10.984375,3.015625 10.6875,3.3125 10.75,3.375 10.8125,3.4375 10.6875,3.3125 Q 10.5625,3.1875 10.375,3.125 L 10.1875,3.0625 10.46875,3.15625 10.75,3.25 10.375,3.125 10,3 V 2.5"
         style="fill:#2b2e61;fill-opacity:0.34901961" />
      <path
         id="path3768"
         d="M 11,2.5 10.75,2.25 10.9375,2.4375 11.125,2.625 11,2.5 Q 10.875,2.375 10.71875,2.28125 L 10.5625,2.1875 10.640625,2.234375 10.71875,2.28125 10.984375,2.015625 11.25,1.75 11.5,2 q 0.25,0.25 0.375,0.625 L 12,3 11.625,2.875 Q 11.25,2.75 11,2.5 M 11.4375,1.9375 11.25,1.75 11.1875,1.6875 11.125,1.625 11.25,1.75 Q 11.375,1.875 11.5,2 l 0.125,0.125 -0.1875,-0.1875"
         style="fill:#202060;fill-opacity:0.03137255" />
      <path
         id="path3770"
         d="M 1,3.5 V 3 H 1.5 2 V 3.5 4 H 1.5 1 V 3.5"
         style="fill:#2c2c64;fill-opacity:0.16078431" />
      <path
         id="path3772"
         d="M 2,3.5 V 3 H 2.5 3 V 3.5 4 H 2.5 2 V 3.5"
         style="fill:#2c3062;fill-opacity:0.47843137" />
      <path
         id="path3774"
         d="M 4,3.5 V 3 H 4.5 5 L 4.875,3.375 Q 4.75,3.75 4.375,3.875 L 4,4 V 3.5"
         style="fill:#2a2d62;fill-opacity:0.28627451" />
      <path
         id="path3776"
         d="M 4.875,3.375 5,3 5.375,2.875 5.75,2.75 5.46875,2.84375 5.1875,2.9375 5.375,2.875 Q 5.5625,2.8125 5.6875,2.6875 L 5.8125,2.5625 5.75,2.625 5.6875,2.6875 5.96875,3 6.25,3.3125 6.3125,3.28125 6.375,3.25 6.25,3.3125 Q 6.125,3.375 6,3.5 L 5.875,3.625 6.0625,3.4375 6.25,3.25 6,3.5 Q 5.75,3.75 5.5,4 L 5.25,4.25 5.4375,4.0625 5.625,3.875 5.5,4 Q 5.375,4.125 5.28125,4.28125 L 5.1875,4.4375 5.234375,4.359375 5.28125,4.28125 4.984375,3.984375 4.6875,3.6875 4.625,3.75 4.5625,3.8125 4.6875,3.6875 Q 4.8125,3.5625 4.875,3.375 L 4.9375,3.1875 4.84375,3.46875 4.75,3.75 4.875,3.375"
         style="fill:#202060;fill-opacity:0.03137255" />
      <path
         id="path3778"
         d="M 6,3.5 Q 6.25,3.25 6.5,3.25 6.75,3.25 7,3.5 7.25,3.75 7.5,4 7.75,4.25 7.875,4.625 8,5 8,5.5 V 6 L 7.875,6.375 Q 7.75,6.75 7.375,6.875 L 7,7 H 6.5 6 L 5.625,6.875 Q 5.25,6.75 5.125,6.375 L 5,6 V 5.5 5 L 5.125,4.625 Q 5.25,4.25 5.5,4 5.75,3.75 6,3.5 M 6.125,5.375 Q 6.25,5.75 6.5,5.75 6.75,5.75 6.875,5.375 7,5 6.875,4.625 6.75,4.25 6.5,4.25 6.25,4.25 6.125,4.625 6,5 6.125,5.375"
         style="fill:#000000;fill-opacity:0" />
      <path
         id="path3780"
         d="M 7,3.5 6.75,3.25 6.9375,3.4375 7.125,3.625 7,3.5 Q 6.875,3.375 6.75,3.3125 L 6.625,3.25 6.6875,3.28125 6.75,3.3125 7.03125,3 7.3125,2.6875 7.25,2.625 7.1875,2.5625 7.3125,2.6875 Q 7.4375,2.8125 7.625,2.875 L 7.8125,2.9375 7.53125,2.84375 7.25,2.75 7.625,2.875 8,3 8.125,3.375 8.25,3.75 8.15625,3.46875 8.0625,3.1875 8.125,3.375 Q 8.1875,3.5625 8.3125,3.6875 L 8.4375,3.8125 8.375,3.75 8.3125,3.6875 8.015625,3.984375 7.71875,4.28125 7.765625,4.359375 7.8125,4.4375 7.71875,4.28125 Q 7.625,4.125 7.5,4 L 7.375,3.875 7.5625,4.0625 7.75,4.25 7.5,4 Q 7.25,3.75 7,3.5"
         style="fill:#202060;fill-opacity:0.03137255" />
      <path
         id="path3782"
         d="M 8.125,3.375 8,3 H 8.5 9 V 3.5 4 L 8.625,3.875 Q 8.25,3.75 8.125,3.375"
         style="fill:#2a2d62;fill-opacity:0.28627451" />
      <path
         id="path3784"
         d="M 10,3.5 V 3 l 0.375,0.125 q 0.375,0.125 0.5,0.5 L 11,4 H 10.5 10 V 3.5"
         style="fill:#2c3060;fill-opacity:0.47843137" />
      <path
         id="path3786"
         d="M 10.875,3.625 10.75,3.25 10.84375,3.53125 10.9375,3.8125 10.875,3.625 Q 10.8125,3.4375 10.6875,3.3125 L 10.5625,3.1875 10.625,3.25 10.6875,3.3125 10.984375,3.015625 11.28125,2.71875 11.203125,2.671875 11.125,2.625 11.28125,2.71875 Q 11.4375,2.8125 11.625,2.875 L 11.8125,2.9375 11.53125,2.84375 11.25,2.75 11.625,2.875 12,3 V 3.5 4 H 11.5 11 L 10.875,3.625"
         style="fill:#2c2c64;fill-opacity:0.16078431" />
      <path
         id="path3788"
         d="M 1,4.5 V 4 H 1.5 2 V 4.5 5 H 1.5 1 V 4.5"
         style="fill:#292d63;fill-opacity:0.24313725" />
      <path
         id="path3790"
         d="M 2,4.5 V 4 H 2.5 3 V 4.5 5 5.5 6 6.5 7 H 2.5 2 V 6.5 6 5.5 5 4.5"
         style="fill:#2b2f62;fill-opacity:0.49019608" />
      <path
         id="path3792"
         d="M 3,4.5 V 4 H 3.5 4 V 4.5 5 H 3.5 3 V 4.5"
         style="fill:#2c2e61;fill-opacity:0.43137255" />
      <path
         id="path3794"
         d="M 4,4.5 V 4 L 4.375,3.875 4.75,3.75 4.46875,3.84375 4.1875,3.9375 4.375,3.875 Q 4.5625,3.8125 4.6875,3.6875 L 4.8125,3.5625 4.75,3.625 4.6875,3.6875 4.984375,3.984375 5.28125,4.28125 5.328125,4.203125 5.375,4.125 5.28125,4.28125 Q 5.1875,4.4375 5.125,4.625 L 5.0625,4.8125 5.15625,4.53125 5.25,4.25 5.125,4.625 5,5 H 4.5 4 V 4.5"
         style="fill:#28285e;fill-opacity:0.0745098" />
      <path
         id="path3796"
         d="M 6.125,4.625 Q 6.25,4.25 6.5,4.25 6.75,4.25 6.875,4.625 7,5 6.875,5.375 6.75,5.75 6.5,5.75 6.25,5.75 6.125,5.375 6,5 6.125,4.625"
         style="fill:#2b2b55;fill-opacity:0.02352941" />
      <path
         id="path3798"
         d="M 7.875,4.625 7.75,4.25 7.84375,4.53125 7.9375,4.8125 7.875,4.625 Q 7.8125,4.4375 7.71875,4.28125 L 7.625,4.125 7.671875,4.203125 7.71875,4.28125 8.015625,3.984375 8.3125,3.6875 8.25,3.625 8.1875,3.5625 8.3125,3.6875 Q 8.4375,3.8125 8.625,3.875 L 8.8125,3.9375 8.53125,3.84375 8.25,3.75 8.625,3.875 9,4 V 4.5 5 L 8.484375,5.015625 7.96875,5.03125 7.984375,5.140625 8,5.25 7.96875,5.03125 Q 7.9375,4.8125 7.875,4.625 L 7.8125,4.4375 7.90625,4.71875 8,5 7.875,4.625"
         style="fill:#262659;fill-opacity:0.07843137" />
      <path
         id="path3800"
         d="M 9,4.5 V 4 H 9.5 10 V 4.5 5 H 9.5 9 V 4.5"
         style="fill:#2c2e61;fill-opacity:0.43137255" />
      <path
         id="path3802"
         d="M 10,4.5 V 4 H 10.5 11 V 4.5 5 5.5 6 6.5 7 H 10.5 10 V 6.5 6 5.5 5 4.5"
         style="fill:#2b2f62;fill-opacity:0.49019608" />
      <path
         id="path3804"
         d="M 11,4.5 V 4 H 11.5 12 V 4.5 5 H 11.5 11 V 4.5"
         style="fill:#292d63;fill-opacity:0.24313725" />
      <path
         id="path3806"
         d="M 1,5.5 V 5 H 1.5 2 V 5.5 6 H 1.5 1 V 5.5"
         style="fill:#2b2f5e;fill-opacity:0.25490196" />
      <path
         id="path3808"
         d="M 3,5.5 V 5 H 3.5 4 V 5.5 6 H 3.5 3 V 5.5"
         style="fill:#2c2e61;fill-opacity:0.41176471" />
      <path
         id="path3810"
         d="M 4,5.5 V 5 H 4.5 5 V 5.5 6 H 4.5 4 V 5.5"
         style="fill:#24245b;fill-opacity:0.05490196" />
      <path
         id="path3812"
         d="M 8,5.5 V 5 5.375 5.75 5.5 Q 8,5.25 7.96875,5.03125 L 7.9375,4.8125 7.953125,4.921875 7.96875,5.03125 8.484375,5.015625 9,5 V 5.5 6 H 8.5 8 V 5.5"
         style="fill:#223355;fill-opacity:0.05882353" />
      <path
         id="path3814"
         d="M 9,5.5 V 5 H 9.5 10 V 5.5 6 H 9.5 9 V 5.5"
         style="fill:#2c2e61;fill-opacity:0.41176471" />
      <path
         id="path3816"
         d="M 11,5.5 V 5 H 11.5 12 V 5.5 6 H 11.5 11 V 5.5"
         style="fill:#2b2f5e;fill-opacity:0.25490196" />
      <path
         id="path3818"
         d="M 1,6.5 V 6 H 1.5 2 V 6.5 7 H 1.5 1 V 6.5"
         style="fill:#2b3060;fill-opacity:0.18823529" />
      <path
         id="path3820"
         d="M 3,6.5 V 6 H 3.5 4 V 6.5 7 H 3.5 3 V 6.5"
         style="fill:#2c3061;fill-opacity:0.48235294" />
      <path
         id="path3822"
         d="M 4,6.5 V 6 H 4.5 5 L 5.125,6.375 5.25,6.75 5.15625,6.46875 5.0625,6.1875 5.125,6.375 Q 5.1875,6.5625 5.3125,6.6875 L 5.4375,6.8125 5.375,6.75 5.3125,6.6875 5,7 4.6875,7.3125 4.75,7.375 4.8125,7.4375 4.6875,7.3125 Q 4.5625,7.1875 4.375,7.125 L 4.1875,7.0625 4.46875,7.15625 4.75,7.25 4.375,7.125 4,7 V 6.5"
         style="fill:#2b2f63;fill-opacity:0.21176471" />
      <path
         id="path3824"
         d="M 7.875,6.375 8,6 H 8.5 9 V 6.5 7 L 8.625,7.125 8.25,7.25 8.53125,7.15625 8.8125,7.0625 8.625,7.125 Q 8.4375,7.1875 8.3125,7.3125 L 8.1875,7.4375 8.25,7.375 8.3125,7.3125 8,7 7.6875,6.6875 7.625,6.75 7.5625,6.8125 7.6875,6.6875 Q 7.8125,6.5625 7.875,6.375 L 7.9375,6.1875 7.84375,6.46875 7.75,6.75 7.875,6.375"
         style="fill:#2b2f63;fill-opacity:0.21176471" />
      <path
         id="path3826"
         d="M 9,6.5 V 6 H 9.5 10 V 6.5 7 H 9.5 9 V 6.5"
         style="fill:#2c3061;fill-opacity:0.48235294" />
      <path
         id="path3828"
         d="M 11,6.5 V 6 H 11.5 12 V 6.5 7 H 11.5 11 V 6.5"
         style="fill:#2b3060;fill-opacity:0.18823529" />
      <path
         id="path3830"
         d="M 1.125,7.375 1,7 H 1.5 2 L 2.125,7.375 2.25,7.75 2.15625,7.46875 2.0625,7.1875 2.125,7.375 Q 2.1875,7.5625 2.3125,7.6875 L 2.4375,7.8125 2.375,7.75 2.3125,7.6875 2.03125,7.96875 1.75,8.25 1.5,8 Q 1.25,7.75 1.125,7.375 M 1.5625,8.0625 1.75,8.25 1.8125,8.3125 1.875,8.375 1.75,8.25 Q 1.625,8.125 1.5,8 L 1.375,7.875 1.5625,8.0625"
         style="fill:#2d2d5a;fill-opacity:0.06666667" />
      <path
         id="path3832"
         d="M 2.125,7.375 2,7 H 2.5 3 V 7.5 8 L 2.625,7.875 Q 2.25,7.75 2.125,7.375"
         style="fill:#2a2f61;fill-opacity:0.40392157" />
      <path
         id="path3834"
         d="M 3,7.5 V 7 H 3.5 4 V 7.5 8 H 3.5 3 V 7.5"
         style="fill:#2b2f62;fill-opacity:0.49019608" />
      <path
         id="path3836"
         d="M 4,7.5 V 7 l 0.375,0.125 q 0.375,0.125 0.5,0.5 L 5,8 H 4.5 4 V 7.5"
         style="fill:#2b2f60;fill-opacity:0.44705882" />
      <path
         id="path3838"
         d="M 4.875,7.625 4.75,7.25 4.84375,7.53125 4.9375,7.8125 4.875,7.625 Q 4.8125,7.4375 4.6875,7.3125 L 4.5625,7.1875 4.625,7.25 4.6875,7.3125 5,7 5.3125,6.6875 5.25,6.625 5.1875,6.5625 5.3125,6.6875 Q 5.4375,6.8125 5.625,6.875 L 5.8125,6.9375 5.53125,6.84375 5.25,6.75 5.625,6.875 6,7 V 7.5 8 H 5.5 5 L 4.875,7.625"
         style="fill:#2b2e61;fill-opacity:0.25882353" />
      <path
         id="path3840"
         d="M 6,7.5 V 7 H 6.5 7 V 7.5 8 H 6.5 6 V 7.5"
         style="fill:#2c2c64;fill-opacity:0.16078431" />
      <path
         id="path3842"
         d="M 7,7.5 V 7 L 7.375,6.875 7.75,6.75 7.46875,6.84375 7.1875,6.9375 7.375,6.875 Q 7.5625,6.8125 7.6875,6.6875 L 7.8125,6.5625 7.75,6.625 7.6875,6.6875 8,7 8.3125,7.3125 8.375,7.25 8.4375,7.1875 8.3125,7.3125 Q 8.1875,7.4375 8.125,7.625 L 8.0625,7.8125 8.15625,7.53125 8.25,7.25 8.125,7.625 8,8 H 7.5 7 V 7.5"
         style="fill:#2b2e61;fill-opacity:0.25882353" />
      <path
         id="path3844"
         d="M 8.125,7.625 Q 8.25,7.25 8.625,7.125 L 9,7 V 7.5 8 H 8.5 8 L 8.125,7.625"
         style="fill:#2b2f60;fill-opacity:0.44705882" />
      <path
         id="path3846"
         d="M 9,7.5 V 7 H 9.5 10 V 7.5 8 H 9.5 9 V 7.5"
         style="fill:#2b2f62;fill-opacity:0.49019608" />
      <path
         id="path3848"
         d="M 10,7.5 V 7 h 0.5 0.5 l -0.125,0.375 q -0.125,0.375 -0.5,0.5 L 10,8 V 7.5"
         style="fill:#2a2f61;fill-opacity:0.40392157" />
      <path
         id="path3850"
         d="M 10.875,7.375 11,7 H 11.5 12 L 11.875,7.375 Q 11.75,7.75 11.5,8 L 11.25,8.25 10.96875,7.96875 10.6875,7.6875 10.625,7.75 10.5625,7.8125 10.6875,7.6875 Q 10.8125,7.5625 10.875,7.375 L 10.9375,7.1875 10.84375,7.46875 10.75,7.75 10.875,7.375 M 11.1875,8.3125 11.25,8.25 11.4375,8.0625 11.625,7.875 11.5,8 q -0.125,0.125 -0.25,0.25 l -0.125,0.125 0.0625,-0.0625"
         style="fill:#2d2d5a;fill-opacity:0.06666667" />
      <path
         id="path3852"
         d="M 0,8.5 V 8 L 0.375,8.125 Q 0.75,8.25 0.75,8.5 0.75,8.75 0.375,8.875 L 0,9 V 8.5"
         style="fill:#000080;fill-opacity:0.00784314" />
      <path
         id="path3854"
         d="M 2,8.5 1.75,8.25 2.03125,7.96875 2.3125,7.6875 2.25,7.625 2.1875,7.5625 2.3125,7.6875 Q 2.4375,7.8125 2.625,7.875 L 2.8125,7.9375 2.53125,7.84375 2.25,7.75 2.625,7.875 3,8 3.125,8.375 3.25,8.75 3.15625,8.46875 3.0625,8.1875 3.125,8.375 Q 3.1875,8.5625 3.3125,8.6875 L 3.4375,8.8125 3.375,8.75 3.3125,8.6875 3.03125,8.96875 2.75,9.25 2.5,9 Q 2.25,8.75 2,8.5 M 2.5625,9.0625 2.75,9.25 2.8125,9.3125 2.875,9.375 2.75,9.25 Q 2.625,9.125 2.5,9 L 2.375,8.875 2.5625,9.0625 M 1.6875,8.1875 1.75,8.25 1.9375,8.4375 2.125,8.625 2,8.5 Q 1.875,8.375 1.75,8.25 L 1.625,8.125 1.6875,8.1875"
         style="fill:#2b3161;fill-opacity:0.16470588" />
      <path
         id="path3856"
         d="M 3.125,8.375 3,8 H 3.5 4 V 8.5 9 L 3.625,8.875 Q 3.25,8.75 3.125,8.375"
         style="fill:#2c2e61;fill-opacity:0.45490196" />
      <path
         id="path3858"
         d="M 4,8.5 V 8 H 4.5 5 5.5 6 V 8.5 9 H 5.5 5 4.5 4 V 8.5"
         style="fill:#2b2f62;fill-opacity:0.49019608" />
      <path
         id="path3860"
         d="M 6,8.5 V 8 H 6.5 7 V 8.5 9 H 6.5 6 V 8.5"
         style="fill:#2c3060;fill-opacity:0.47843137" />
      <path
         id="path3862"
         d="M 7,8.5 V 8 H 7.5 8 8.5 9 V 8.5 9 H 8.5 8 7.5 7 V 8.5"
         style="fill:#2b2f62;fill-opacity:0.49019608" />
      <path
         id="path3864"
         d="M 9,8.5 V 8 H 9.5 10 L 9.875,8.375 Q 9.75,8.75 9.375,8.875 L 9,9 V 8.5"
         style="fill:#2c2e61;fill-opacity:0.45490196" />
      <path
         id="path3866"
         d="M 9.875,8.375 10,8 10.375,7.875 10.75,7.75 10.46875,7.84375 10.1875,7.9375 10.375,7.875 Q 10.5625,7.8125 10.6875,7.6875 L 10.8125,7.5625 10.75,7.625 10.6875,7.6875 10.96875,7.96875 11.25,8.25 11,8.5 Q 10.75,8.75 10.5,9 L 10.25,9.25 9.96875,8.96875 9.6875,8.6875 9.625,8.75 9.5625,8.8125 9.6875,8.6875 Q 9.8125,8.5625 9.875,8.375 L 9.9375,8.1875 9.84375,8.46875 9.75,8.75 9.875,8.375 M 10.1875,9.3125 10.25,9.25 10.4375,9.0625 10.625,8.875 10.5,9 Q 10.375,9.125 10.25,9.25 L 10.125,9.375 10.1875,9.3125 M 11.0625,8.4375 11.25,8.25 11.3125,8.1875 11.375,8.125 11.25,8.25 Q 11.125,8.375 11,8.5 l -0.125,0.125 0.1875,-0.1875"
         style="fill:#2c2c64;fill-opacity:0.16078431" />
      <path
         id="path3868"
         d="m 12.25,8.5 q 0,-0.25 0.375,-0.375 L 13,8 V 8.5 9 L 12.625,8.875 Q 12.25,8.75 12.25,8.5"
         style="fill:#000080;fill-opacity:0.00784314" />
      <path
         id="path3870"
         d="M 3,9.5 2.75,9.25 3.03125,8.96875 3.3125,8.6875 3.25,8.625 3.1875,8.5625 3.3125,8.6875 Q 3.4375,8.8125 3.625,8.875 L 3.8125,8.9375 3.53125,8.84375 3.25,8.75 3.625,8.875 4,9 4.125,9.375 4.25,9.75 4.15625,9.46875 4.0625,9.1875 4.125,9.375 Q 4.1875,9.5625 4.3125,9.6875 L 4.4375,9.8125 4.375,9.75 4.3125,9.6875 4,9.96875 3.6875,10.25 3.71875,10.3125 3.75,10.375 3.6875,10.25 Q 3.625,10.125 3.5,10 L 3.375,9.875 3.5625,10.0625 3.75,10.25 3.5,10 Q 3.25,9.75 3,9.5 M 2.6875,9.1875 2.75,9.25 2.9375,9.4375 3.125,9.625 3,9.5 Q 2.875,9.375 2.75,9.25 L 2.625,9.125 2.6875,9.1875"
         style="fill:#272e62;fill-opacity:0.15294118" />
      <path
         id="path3872"
         d="M 4.125,9.375 4,9 H 4.5 5 V 9.5 10 L 4.625,9.875 Q 4.25,9.75 4.125,9.375"
         style="fill:#2b3060;fill-opacity:0.37647059" />
      <path
         id="path3874"
         d="M 5,9.5 V 9 H 5.5 6 V 9.5 10 H 5.5 5 V 9.5"
         style="fill:#2c3060;fill-opacity:0.45882353" />
      <path
         id="path3876"
         d="M 6,9.5 V 9 H 6.5 7 V 9.5 10 H 6.5 6 V 9.5"
         style="fill:#2a2e61;fill-opacity:0.4745098" />
      <path
         id="path3878"
         d="M 7,9.5 V 9 H 7.5 8 V 9.5 10 H 7.5 7 V 9.5"
         style="fill:#2c2e61;fill-opacity:0.45490196" />
      <path
         id="path3880"
         d="M 8,9.5 V 9 H 8.5 9 L 8.875,9.375 Q 8.75,9.75 8.375,9.875 L 8,10 V 9.5"
         style="fill:#2b3061;fill-opacity:0.37254902" />
      <path
         id="path3882"
         d="M 8.875,9.375 9,9 9.375,8.875 9.75,8.75 9.46875,8.84375 9.1875,8.9375 9.375,8.875 Q 9.5625,8.8125 9.6875,8.6875 L 9.8125,8.5625 9.75,8.625 9.6875,8.6875 9.96875,8.96875 10.25,9.25 10,9.5 Q 9.75,9.75 9.5,10 L 9.25,10.25 9.4375,10.0625 9.625,9.875 9.5,10 Q 9.375,10.125 9.3125,10.25 L 9.25,10.375 9.28125,10.3125 9.3125,10.25 9,9.96875 8.6875,9.6875 8.625,9.75 8.5625,9.8125 8.6875,9.6875 Q 8.8125,9.5625 8.875,9.375 L 8.9375,9.1875 8.84375,9.46875 8.75,9.75 8.875,9.375 M 10.0625,9.4375 10.25,9.25 10.3125,9.1875 10.375,9.125 10.25,9.25 Q 10.125,9.375 10,9.5 L 9.875,9.625 10.0625,9.4375"
         style="fill:#272e62;fill-opacity:0.15294118" />
      <path
         id="path3884"
         d="M 0,10.5 V 10 H 0.5 1 V 10.5 11 H 0.5 0 v -0.5"
         style="fill:#000040;fill-opacity:0.01568627" />
      <path
         id="path3886"
         d="M 1,10.5 V 10 l 0.375,0.125 Q 1.75,10.25 2,10.5 L 2.25,10.75 2.0625,10.5625 1.875,10.375 2,10.5 q 0.125,0.125 0.28125,0.21875 L 2.4375,10.8125 2.359375,10.765625 2.28125,10.71875 1.984375,11.015625 1.6875,11.3125 1.75,11.375 1.8125,11.4375 1.6875,11.3125 Q 1.5625,11.1875 1.375,11.125 L 1.1875,11.0625 1.46875,11.15625 1.75,11.25 1.375,11.125 1,11 v -0.5"
         style="fill:#2b2b63;fill-opacity:0.07058824" />
      <path
         id="path3888"
         d="M 3.75,10.5 V 10.25 10.4375 10.625 10.5 q 0,-0.125 -0.0625,-0.25 L 3.625,10.125 3.65625,10.1875 3.6875,10.25 4,9.96875 4.3125,9.6875 4.25,9.625 4.1875,9.5625 4.3125,9.6875 Q 4.4375,9.8125 4.625,9.875 L 4.8125,9.9375 4.53125,9.84375 4.25,9.75 4.625,9.875 5,10 4.875,10.375 Q 4.75,10.75 4.5,11 L 4.25,11.25 4.4375,11.0625 4.625,10.875 4.5,11 Q 4.375,11.125 4.28125,11.28125 L 4.1875,11.4375 4.234375,11.359375 4.28125,11.28125 3.96875,11 3.65625,10.71875 3.609375,10.765625 3.5625,10.8125 3.65625,10.71875 Q 3.75,10.625 3.75,10.5 V 10.375 10.5625 10.75 10.5"
         style="fill:#1c1c55;fill-opacity:0.03529412" />
      <path
         id="path3890"
         d="M 4.875,10.375 5,10 H 5.5 6 V 10.5 11 L 5.625,11.125 5.25,11.25 5.53125,11.15625 5.8125,11.0625 5.625,11.125 Q 5.4375,11.1875 5.34375,11.28125 L 5.25,11.375 5.296875,11.328125 5.34375,11.28125 5.03125,11 4.71875,10.71875 4.671875,10.796875 4.625,10.875 4.71875,10.71875 Q 4.8125,10.5625 4.875,10.375 L 4.9375,10.1875 4.84375,10.46875 4.75,10.75 4.875,10.375"
         style="fill:#272e64;fill-opacity:0.12941176" />
      <path
         id="path3892"
         d="M 6,10.5 V 10 H 6.5 7 V 10.5 11 H 6.5 6 v -0.5"
         style="fill:#2c2c64;fill-opacity:0.16078431" />
      <path
         id="path3894"
         d="M 7,10.5 V 10 H 7.5 8 L 8.125,10.375 8.25,10.75 8.15625,10.46875 8.0625,10.1875 8.125,10.375 q 0.0625,0.1875 0.15625,0.34375 L 8.375,10.875 8.328125,10.796875 8.28125,10.71875 7.96875,11 7.65625,11.28125 7.703125,11.328125 7.75,11.375 7.65625,11.28125 Q 7.5625,11.1875 7.375,11.125 L 7.1875,11.0625 7.46875,11.15625 7.75,11.25 7.375,11.125 7,11 v -0.5"
         style="fill:#272e64;fill-opacity:0.12941176" />
      <path
         id="path3896"
         d="M 8.125,10.375 8,10 8.375,9.875 8.75,9.75 8.46875,9.84375 8.1875,9.9375 8.375,9.875 Q 8.5625,9.8125 8.6875,9.6875 L 8.8125,9.5625 8.75,9.625 8.6875,9.6875 9,9.96875 9.3125,10.25 9.34375,10.1875 9.375,10.125 9.3125,10.25 Q 9.25,10.375 9.25,10.5 V 10.625 10.4375 10.25 10.5 10.75 10.5625 10.375 10.5 q 0,0.125 0.09375,0.21875 L 9.4375,10.8125 9.390625,10.765625 9.34375,10.71875 9.03125,11 8.71875,11.28125 8.765625,11.359375 8.8125,11.4375 8.71875,11.28125 Q 8.625,11.125 8.5,11 L 8.375,10.875 8.5625,11.0625 8.75,11.25 8.5,11 Q 8.25,10.75 8.125,10.375"
         style="fill:#1c1c55;fill-opacity:0.03529412" />
      <path
         id="path3898"
         d="m 11,10.5 q 0.25,-0.25 0.625,-0.375 L 12,10 11.71875,10.09375 11.4375,10.1875 11.625,10.125 q 0.1875,-0.0625 0.40625,-0.09375 L 12.25,10 12.140625,10.015625 12.03125,10.03125 12.140625,10.390625 12.25,10.75 12.15625,10.46875 12.0625,10.1875 12.125,10.375 q 0.0625,0.1875 0.1875,0.3125 l 0.125,0.125 -0.0625,-0.0625 -0.0625,-0.0625 -0.296875,0.328125 -0.296875,0.328125 0.04687,0.04687 0.04687,0.04687 -0.09375,-0.09375 Q 11.625,11.25 11.5,11.25 H 11.375 11.5625 11.75 11.5 11.25 11.4375 11.625 11.5 q -0.125,0 -0.21875,0.09375 L 11.1875,11.4375 11.23437,11.39063 11.28124,11.34376 11,11.03125 l -0.28125,-0.3125 -0.07813,0.04687 -0.07813,0.04687 0.15625,-0.09375 Q 10.875,10.625 11,10.5 L 11.125,10.375 10.9375,10.5625 10.75,10.75 11,10.5"
         style="fill:#2b2b63;fill-opacity:0.07058824" />
      <path
         id="path3900"
         d="M 12.140625,10.390625 12.03125,10.03125 11.921875,10.046875 11.8125,10.0625 12.03125,10.03125 Q 12.25,10 12.5,10 H 12.75 12.375 12 12.5 13 V 10.5 11 L 12.625,10.875 Q 12.25,10.75 12.140625,10.390625"
         style="fill:#000055;fill-opacity:0.01176471" />
      <path
         id="path3902"
         d="M 0,11.5 V 11 H 0.5 1 V 11.5 12 H 0.5 0 v -0.5"
         style="fill:#293060;fill-opacity:0.27058824" />
      <path
         id="path3904"
         d="M 1,11.5 V 11 l 0.375,0.125 q 0.375,0.125 0.5,0.5 L 2,12 H 1.5 1 v -0.5"
         style="fill:#2a2f61;fill-opacity:0.40392157" />
      <path
         id="path3906"
         d="M 1.875,11.625 1.75,11.25 1.84375,11.53125 1.9375,11.8125 1.875,11.625 Q 1.8125,11.4375 1.6875,11.3125 L 1.5625,11.1875 1.625,11.25 1.6875,11.3125 1.984375,11.015625 2.28125,10.71875 2.203125,10.671875 2.125,10.625 2.28125,10.71875 Q 2.4375,10.8125 2.625,10.875 L 2.8125,10.9375 2.53125,10.84375 2.25,10.75 2.625,10.875 3,11 V 11.5 12 H 2.5 2 L 1.875,11.625"
         style="fill:#2b2e60;fill-opacity:0.28235294" />
      <path
         id="path3908"
         d="M 3,11.5 V 11 L 3.375,10.875 3.75,10.75 3.46875,10.84375 3.1875,10.9375 3.375,10.875 Q 3.5625,10.8125 3.65625,10.71875 L 3.75,10.625 3.703125,10.671875 3.65625,10.71875 3.96875,11 4.28125,11.28125 4.328125,11.203125 4.375,11.125 4.28125,11.28125 Q 4.1875,11.4375 4.125,11.625 L 4.0625,11.8125 4.15625,11.53125 4.25,11.25 4.125,11.625 4,12 H 3.5 3 v -0.5"
         style="fill:#2b2b5e;fill-opacity:0.11764706" />
      <path
         id="path3910"
         d="M 4.125,11.625 Q 4.25,11.25 4.5,11 L 4.75,10.75 4.5625,10.9375 4.375,11.125 4.5,11 Q 4.625,10.875 4.71875,10.71875 L 4.8125,10.5625 4.765625,10.640625 4.71875,10.71875 5.03125,11 5.34375,11.28125 5.390625,11.234375 5.4375,11.1875 5.34375,11.28125 Q 5.25,11.375 5.25,11.5 V 11.625 11.4375 11.25 11.5 11.75 11.5625 11.375 11.5 q 0,0.125 0.09375,0.21875 L 5.4375,11.8125 5.390625,11.765625 5.34375,11.71875 5.015625,12.015625 4.6875,12.3125 4.75,12.375 4.8125,12.4375 4.6875,12.3125 Q 4.5625,12.1875 4.375,12.125 L 4.1875,12.0625 4.46875,12.15625 4.75,12.25 4.375,12.125 4,12 4.125,11.625"
         style="fill:#333366;fill-opacity:0.01960784" />
      <path
         id="path3912"
         d="m 5.25,11.5 q 0,-0.25 0.375,-0.375 L 6,11 H 6.5 7 l 0.375,0.125 Q 7.75,11.25 7.75,11.5 q 0,0.25 -0.375,0.375 L 7,12 H 6.5 6 L 5.625,11.875 Q 5.25,11.75 5.25,11.5"
         style="fill:#000000;fill-opacity:0" />
      <path
         id="path3914"
         d="M 7.75,11.5 V 11.25 11.4375 11.625 11.5 q 0,-0.125 -0.09375,-0.21875 L 7.5625,11.1875 7.609375,11.234375 7.65625,11.28125 7.96875,11 8.28125,10.71875 8.234375,10.640625 8.1875,10.5625 8.28125,10.71875 Q 8.375,10.875 8.5,11 L 8.625,11.125 8.4375,10.9375 8.25,10.75 8.5,11 q 0.25,0.25 0.375,0.625 L 9,12 8.625,12.125 8.25,12.25 8.53125,12.15625 8.8125,12.0625 8.625,12.125 Q 8.4375,12.1875 8.3125,12.3125 L 8.1875,12.4375 8.25,12.375 8.3125,12.3125 7.984375,12.015625 7.65625,11.71875 7.609375,11.765625 7.5625,11.8125 7.65625,11.71875 Q 7.75,11.625 7.75,11.5 V 11.375 11.5625 11.75 11.5"
         style="fill:#333366;fill-opacity:0.01960784" />
      <path
         id="path3916"
         d="M 8.875,11.625 8.75,11.25 8.84375,11.53125 8.9375,11.8125 8.875,11.625 Q 8.8125,11.4375 8.71875,11.28125 L 8.625,11.125 8.671875,11.203125 8.71875,11.28125 9.03125,11 9.34375,10.71875 9.296875,10.671875 9.25,10.625 9.34375,10.71875 Q 9.4375,10.8125 9.625,10.875 L 9.8125,10.9375 9.53125,10.84375 9.25,10.75 9.625,10.875 10,11 V 11.5 12 H 9.5 9 L 8.875,11.625"
         style="fill:#2b2b5e;fill-opacity:0.11764706" />
      <path
         id="path3918"
         d="M 10,11.5 V 11 L 10.375,10.875 10.75,10.75 10.46875,10.84375 10.1875,10.9375 10.375,10.875 q 0.1875,-0.0625 0.34375,-0.15625 L 10.875,10.625 l -0.07813,0.04687 -0.07813,0.04687 0.28125,0.3125 0.28125,0.3125 0.04687,-0.04687 L 11.375,11.25 11.28125,11.34375 Q 11.1875,11.4375 11.125,11.625 L 11.0625,11.8125 11.15625,11.53125 11.25,11.25 11.125,11.625 11,12 H 10.5 10 v -0.5"
         style="fill:#2b2e60;fill-opacity:0.28235294" />
      <path
         id="path3920"
         d="M 11.125,11.625 Q 11.25,11.25 11.5,11.25 q 0.25,0 0.375,0.375 L 12,12 H 11.5 11 l 0.125,-0.375"
         style="fill:#2a2f61;fill-opacity:0.40392157" />
      <path
         id="path3922"
         d="M 11.875,11.625 11.75,11.25 11.84375,11.53125 11.9375,11.8125 11.875,11.625 Q 11.8125,11.4375 11.71875,11.34375 L 11.625,11.25 l 0.04687,0.04687 0.04687,0.04687 0.296875,-0.328125 L 12.3125,10.6875 12.25,10.625 l -0.0625,-0.0625 0.125,0.125 q 0.125,0.125 0.3125,0.1875 L 12.8125,10.9375 12.53125,10.84375 12.25,10.75 12.625,10.875 13,11 V 11.5 12 H 12.5 12 l -0.125,-0.375"
         style="fill:#293060;fill-opacity:0.27058824" />
      <path
         id="path3924"
         d="M 0,12.5 V 12 H 0.5 1 V 12.5 13 H 0.5 0 v -0.5"
         style="fill:#2b2f61;fill-opacity:0.48627451" />
      <path
         id="path3926"
         d="M 1,12.5 V 12 H 1.5 2 2.5 3 v 0.5 Q 3,13 3.5,13 H 4 4.5 5 5.5 6 6.5 7 7.5 8 8.5 9 9.5 Q 10,13 10,12.5 V 12 H 10.5 11 11.5 12 V 12.5 13 H 11.5 Q 11,13 11,13.5 V 14 H 10.5 10 9.5 9 8.5 8 7.5 7 6.5 6 5.5 5 4.5 4 3.5 3 2.5 2 V 13.5 Q 2,13 1.5,13 H 1 v -0.5"
         style="fill:#2b2f62;fill-opacity:0.49019608" />
      <path
         id="path3928"
         d="M 3,12.5 V 12 H 3.5 4 V 12.5 13 H 3.5 Q 3,13 3,12.5"
         style="fill:#2b2f61;fill-opacity:0.44313725" />
      <path
         id="path3930"
         d="M 4,12.5 V 12 l 0.375,0.125 q 0.375,0.125 0.5,0.5 L 5,13 H 4.5 4 v -0.5"
         style="fill:#2a2f61;fill-opacity:0.36078431" />
      <path
         id="path3932"
         d="M 4.875,12.625 4.75,12.25 4.84375,12.53125 4.9375,12.8125 4.875,12.625 Q 4.8125,12.4375 4.6875,12.3125 L 4.5625,12.1875 4.625,12.25 4.6875,12.3125 5.015625,12.015625 5.34375,11.71875 5.296875,11.671875 5.25,11.625 5.34375,11.71875 Q 5.4375,11.8125 5.625,11.875 L 5.8125,11.9375 5.53125,11.84375 5.25,11.75 5.625,11.875 6,12 V 12.5 13 H 5.5 5 L 4.875,12.625"
         style="fill:#293060;fill-opacity:0.29019608" />
      <path
         id="path3934"
         d="M 6,12.5 V 12 H 6.5 7 V 12.5 13 H 6.5 6 v -0.5"
         style="fill:#293162;fill-opacity:0.26666667" />
      <path
         id="path3936"
         d="M 7,12.5 V 12 L 7.375,11.875 7.75,11.75 7.46875,11.84375 7.1875,11.9375 7.375,11.875 Q 7.5625,11.8125 7.65625,11.71875 L 7.75,11.625 7.703125,11.671875 7.65625,11.71875 7.984375,12.015625 8.3125,12.3125 8.375,12.25 8.4375,12.1875 8.3125,12.3125 Q 8.1875,12.4375 8.125,12.625 L 8.0625,12.8125 8.15625,12.53125 8.25,12.25 8.125,12.625 8,13 H 7.5 7 v -0.5"
         style="fill:#293060;fill-opacity:0.29019608" />
      <path
         id="path3938"
         d="m 8.125,12.625 q 0.125,-0.375 0.5,-0.5 L 9,12 V 12.5 13 H 8.5 8 l 0.125,-0.375"
         style="fill:#2a2f61;fill-opacity:0.36078431" />
      <path
         id="path3940"
         d="M 9,12.5 V 12 H 9.5 10 v 0.5 Q 10,13 9.5,13 H 9 v -0.5"
         style="fill:#2b2f61;fill-opacity:0.44313725" />
      <path
         id="path3942"
         d="M 12,12.5 V 12 H 12.5 13 V 12.5 13 H 12.5 12 v -0.5"
         style="fill:#2b2f61;fill-opacity:0.48627451" />
      <path
         id="path3944"
         d="M 0,13.5 V 13 H 0.5 1 L 1.125,13.375 1.25,13.75 1.15625,13.46875 1.0625,13.1875 1.125,13.375 q 0.0625,0.1875 0.1875,0.3125 l 0.125,0.125 L 1.375,13.75 1.3125,13.6875 1.015625,13.984375 0.71875,14.28125 0.796875,14.328125 0.875,14.375 0.71875,14.28125 Q 0.5625,14.1875 0.375,14.125 L 0.1875,14.0625 0.46875,14.15625 0.75,14.25 0.375,14.125 0,14 v -0.5"
         style="fill:#2b2f5e;fill-opacity:0.25490196" />
      <path
         id="path3946"
         d="M 1.125,13.375 1,13 H 1.5 Q 2,13 2,13.5 V 14 L 1.625,13.875 q -0.375,-0.125 -0.5,-0.5"
         style="fill:#2b2f60;fill-opacity:0.44705882" />
      <path
         id="path3948"
         d="M 11,13.5 Q 11,13 11.5,13 H 12 l -0.125,0.375 q -0.125,0.375 -0.5,0.5 L 11,14 v -0.5"
         style="fill:#2b2f60;fill-opacity:0.44705882" />
      <path
         id="path3950"
         d="M 11.875,13.375 12,13 H 12.5 13 V 13.5 14 L 12.625,14.125 12.25,14.25 12.53125,14.15625 12.8125,14.0625 12.625,14.125 q -0.1875,0.0625 -0.34375,0.15625 L 12.125,14.375 12.203125,14.328125 12.28125,14.28125 11.984375,13.984375 11.6875,13.6875 11.625,13.75 l -0.0625,0.0625 0.125,-0.125 q 0.125,-0.125 0.1875,-0.3125 L 11.9375,13.1875 11.84375,13.46875 11.75,13.75 11.875,13.375"
         style="fill:#2c3060;fill-opacity:0.25098039" />
      <path
         id="path3952"
         d="M 0,14.5 V 14 l 0.375,0.125 Q 0.75,14.25 1,14.5 1.25,14.75 1.625,14.875 L 2,15 2.375,15.125 q 0.375,0.125 0.5,0.5 L 3,16 2.875,16.375 Q 2.75,16.75 2.5,17 2.25,17.25 2,17.5 1.75,17.75 1.5,18 1.25,18.25 1,18.5 0.75,18.75 0.375,18.875 L 0,19 V 18.5 18 L 0.375,17.875 Q 0.75,17.75 1,17.5 1.25,17.25 1.5,17 1.75,16.75 1.75,16.5 1.75,16.25 1.5,16.25 H 1.25 1.4375 1.625 1.5 q -0.125,0 -0.25,0.0625 L 1.125,16.375 1.1875,16.34375 1.25,16.3125 1,16.03125 Q 0.75,15.75 0.375,15.875 L 0,16 V 15.5 15 14.5"
         style="fill:#000000;fill-opacity:0" />
      <path
         id="path3954"
         d="M 1,14.5 0.75,14.25 0.9375,14.4375 1.125,14.625 1,14.5 Q 0.875,14.375 0.71875,14.28125 L 0.5625,14.1875 0.640625,14.234375 0.71875,14.28125 1.015625,13.984375 1.3125,13.6875 1.25,13.625 1.1875,13.5625 l 0.125,0.125 q 0.125,0.125 0.3125,0.1875 L 1.8125,13.9375 1.53125,13.84375 1.25,13.75 1.625,13.875 2,14 V 14.5 15 L 1.625,14.875 Q 1.25,14.75 1,14.5"
         style="fill:#2e2e64;fill-opacity:0.10980392" />
      <path
         id="path3956"
         d="M 2,14.5 V 14 H 2.5 3 L 3.125,14.375 3.25,14.75 3.15625,14.46875 3.0625,14.1875 3.125,14.375 q 0.0625,0.1875 0.1875,0.3125 l 0.125,0.125 L 3.375,14.75 3.3125,14.6875 3,15 2.6875,15.3125 2.75,15.375 2.8125,15.4375 2.6875,15.3125 Q 2.5625,15.1875 2.375,15.125 L 2.1875,15.0625 2.46875,15.15625 2.75,15.25 2.375,15.125 2,15 v -0.5"
         style="fill:#2a3162;fill-opacity:0.28627451" />
      <path
         id="path3958"
         d="M 3.125,14.375 3,14 H 3.5 4 V 14.5 15 L 3.625,14.875 q -0.375,-0.125 -0.5,-0.5"
         style="fill:#2b3060;fill-opacity:0.41568627" />
      <path
         id="path3960"
         d="M 4,14.5 V 14 H 4.5 5 V 14.5 15 H 4.5 4 v -0.5"
         style="fill:#2a2e61;fill-opacity:0.4745098" />
      <path
         id="path3962"
         d="M 5,14.5 V 14 H 5.5 6 V 14.5 15 H 5.5 5 v -0.5"
         style="fill:#2c3061;fill-opacity:0.48235294" />
      <path
         id="path3964"
         d="M 6,14.5 V 14 H 6.5 7 V 14.5 15 H 6.5 6 v -0.5"
         style="fill:#2b2f61;fill-opacity:0.48627451" />
      <path
         id="path3966"
         d="M 7,14.5 V 14 H 7.5 8 V 14.5 15 H 7.5 7 v -0.5"
         style="fill:#2c3061;fill-opacity:0.48235294" />
      <path
         id="path3968"
         d="M 8,14.5 V 14 H 8.5 9 V 14.5 15 H 8.5 8 v -0.5"
         style="fill:#2b2f62;fill-opacity:0.47058824" />
      <path
         id="path3970"
         d="M 9,14.5 V 14 H 9.5 10 l -0.125,0.375 q -0.125,0.375 -0.5,0.5 L 9,15 v -0.5"
         style="fill:#2b3060;fill-opacity:0.41568627" />
      <path
         id="path3972"
         d="M 9.875,14.375 10,14 H 10.5 11 V 14.5 15 L 10.625,15.125 10.25,15.25 10.53125,15.15625 10.8125,15.0625 10.625,15.125 q -0.1875,0.0625 -0.3125,0.1875 l -0.125,0.125 L 10.25,15.375 10.3125,15.3125 10,15 9.6875,14.6875 9.625,14.75 9.5625,14.8125 9.6875,14.6875 Q 9.8125,14.5625 9.875,14.375 L 9.9375,14.1875 9.84375,14.46875 9.75,14.75 9.875,14.375"
         style="fill:#2a3162;fill-opacity:0.28627451" />
      <path
         id="path3974"
         d="M 11,14.5 V 14 L 11.375,13.875 11.75,13.75 11.46875,13.84375 11.1875,13.9375 11.375,13.875 q 0.1875,-0.0625 0.3125,-0.1875 l 0.125,-0.125 -0.0625,0.0625 -0.0625,0.0625 0.296875,0.296875 0.296875,0.296875 0.07813,-0.04687 0.07813,-0.04687 -0.15625,0.09375 Q 12.125,14.375 12,14.5 L 11.875,14.625 12.0625,14.4375 12.25,14.25 12,14.5 q -0.25,0.25 -0.625,0.375 L 11,15 v -0.5"
         style="fill:#2e2e64;fill-opacity:0.10980392" />
      <path
         id="path3976"
         d="m 12,14.5 q 0.25,-0.25 0.625,-0.375 L 13,14 V 14.5 15 15.5 16 L 12.625,15.875 Q 12.25,15.75 12,16.03125 L 11.75,16.3125 11.8125,16.34375 11.875,16.375 11.75,16.3125 Q 11.625,16.25 11.5,16.25 H 11.375 11.5625 11.75 11.5 q -0.25,0 -0.25,0.25 0,0.25 0.25,0.5 0.25,0.25 0.5,0.5 0.25,0.25 0.625,0.375 L 13,18 V 18.5 19 L 12.625,18.875 Q 12.25,18.75 12,18.5 11.75,18.25 11.5,18 11.25,17.75 11,17.5 10.75,17.25 10.5,17 10.25,16.75 10.125,16.375 L 10,16 10.125,15.625 q 0.125,-0.375 0.5,-0.5 L 11,15 11.375,14.875 Q 11.75,14.75 12,14.5"
         style="fill:#000000;fill-opacity:0" />
      <path
         id="path3978"
         d="M 2.875,15.625 2.75,15.25 2.84375,15.53125 2.9375,15.8125 2.875,15.625 Q 2.8125,15.4375 2.6875,15.3125 L 2.5625,15.1875 2.625,15.25 2.6875,15.3125 3,15 3.3125,14.6875 3.25,14.625 3.1875,14.5625 l 0.125,0.125 q 0.125,0.125 0.3125,0.1875 L 3.8125,14.9375 3.53125,14.84375 3.25,14.75 3.625,14.875 4,15 V 15.5 16 H 3.5 3 L 2.875,15.625"
         style="fill:#2e2e64;fill-opacity:0.10980392" />
      <path
         id="path3980"
         d="M 4,15.5 V 15 H 4.5 5 V 15.5 16 H 4.5 4 v -0.5"
         style="fill:#2a2f62;fill-opacity:0.42745098" />
      <path
         id="path3982"
         d="M 5,15.5 V 15 H 5.5 6 V 15.5 16 H 5.5 5 v -0.5"
         style="fill:#2b2f62;fill-opacity:0.49019608" />
      <path
         id="path3984"
         d="M 6,15.5 V 15 H 6.5 7 V 15.5 16 H 6.5 6 v -0.5"
         style="fill:#2b2f62;fill-opacity:0.47058824" />
      <path
         id="path3986"
         d="M 7,15.5 V 15 H 7.5 8 V 15.5 16 H 7.5 7 v -0.5"
         style="fill:#2b2f62;fill-opacity:0.49019608" />
      <path
         id="path3988"
         d="M 8,15.5 V 15 H 8.5 9 V 15.5 16 H 8.5 8 v -0.5"
         style="fill:#2a2f60;fill-opacity:0.42745098" />
      <path
         id="path3990"
         d="M 9,15.5 V 15 L 9.375,14.875 9.75,14.75 9.46875,14.84375 9.1875,14.9375 9.375,14.875 Q 9.5625,14.8125 9.6875,14.6875 L 9.8125,14.5625 9.75,14.625 9.6875,14.6875 10,15 l 0.3125,0.3125 0.0625,-0.0625 0.0625,-0.0625 -0.125,0.125 q -0.125,0.125 -0.1875,0.3125 L 10.0625,15.8125 10.15625,15.53125 10.25,15.25 10.125,15.625 10,16 H 9.5 9 v -0.5"
         style="fill:#2e2e64;fill-opacity:0.10980392" />
      <path
         id="path3992"
         d="M 0,16.5 V 16 L 0.375,15.875 Q 0.75,15.75 1,16.03125 L 1.25,16.3125 1.3125,16.28125 1.375,16.25 1.25,16.3125 Q 1.125,16.375 1,16.5 L 0.875,16.625 1.0625,16.4375 1.25,16.25 1,16.5 Q 0.75,16.75 0.375,16.875 L 0,17 v -0.5"
         style="fill:#000000;fill-opacity:0.00392157" />
      <path
         id="path3994"
         d="m 1,16.5 q 0.25,-0.25 0.5,-0.25 0.25,0 0.25,0.25 0,0.25 -0.25,0.5 Q 1.25,17.25 1,17.5 0.75,17.75 0.375,17.875 L 0,18 V 17.5 17 L 0.375,16.875 Q 0.75,16.75 1,16.5"
         style="fill:#000080;fill-opacity:0.00784314" />
      <path
         id="path3996"
         d="M 2.875,16.375 3,16 H 3.5 4 V 16.5 17 L 3.625,17.125 3.25,17.25 3.53125,17.15625 3.8125,17.0625 3.625,17.125 Q 3.4375,17.1875 3.3125,17.3125 L 3.1875,17.4375 3.25,17.375 3.3125,17.3125 3.015625,17.015625 2.71875,16.71875 2.671875,16.796875 2.625,16.875 2.71875,16.71875 Q 2.8125,16.5625 2.875,16.375 L 2.9375,16.1875 2.84375,16.46875 2.75,16.75 2.875,16.375"
         style="fill:#2c3061;fill-opacity:0.22745098" />
      <path
         id="path3998"
         d="M 4,16.5 V 16 H 4.5 5 V 16.5 17 H 4.5 4 v -0.5"
         style="fill:#2a2e61;fill-opacity:0.4745098" />
      <path
         id="path4000"
         d="M 5,16.5 V 16 H 5.5 6 V 16.5 17 H 5.5 5 v -0.5"
         style="fill:#2c3061;fill-opacity:0.48235294" />
      <path
         id="path4002"
         d="M 6,16.5 V 16 H 6.5 7 V 16.5 17 H 6.5 6 v -0.5"
         style="fill:#2b2f62;fill-opacity:0.49019608" />
      <path
         id="path4004"
         d="M 7,16.5 V 16 H 7.5 8 V 16.5 17 H 7.5 7 v -0.5"
         style="fill:#2c3061;fill-opacity:0.48235294" />
      <path
         id="path4006"
         d="M 8,16.5 V 16 H 8.5 9 V 16.5 17 H 8.5 8 v -0.5"
         style="fill:#2b2f62;fill-opacity:0.47058824" />
      <path
         id="path4008"
         d="M 9,16.5 V 16 H 9.5 10 l 0.125,0.375 0.125,0.375 -0.09375,-0.28125 -0.09375,-0.28125 0.0625,0.1875 q 0.0625,0.1875 0.15625,0.34375 L 10.375,16.875 10.328125,16.796875 10.28125,16.71875 9.984375,17.015625 9.6875,17.3125 9.75,17.375 9.8125,17.4375 9.6875,17.3125 Q 9.5625,17.1875 9.375,17.125 L 9.1875,17.0625 9.46875,17.15625 9.75,17.25 9.375,17.125 9,17 v -0.5"
         style="fill:#2c3061;fill-opacity:0.22745098" />
      <path
         id="path4010"
         d="m 11.25,16.5 q 0,-0.25 0.25,-0.25 0.25,0 0.5,0.25 0.25,0.25 0.625,0.375 L 13,17 V 17.5 18 L 12.625,17.875 Q 12.25,17.75 12,17.5 11.75,17.25 11.5,17 11.25,16.75 11.25,16.5"
         style="fill:#000080;fill-opacity:0.00784314" />
      <path
         id="path4012"
         d="M 12,16.5 11.75,16.25 11.9375,16.4375 12.125,16.625 12,16.5 Q 11.875,16.375 11.75,16.3125 L 11.625,16.25 11.6875,16.28125 11.75,16.3125 12,16.03125 Q 12.25,15.75 12.625,15.875 L 13,16 V 16.5 17 L 12.625,16.875 Q 12.25,16.75 12,16.5"
         style="fill:#000000;fill-opacity:0.00392157" />
      <path
         id="path4014"
         d="M 2,17.5 Q 2.25,17.25 2.5,17 L 2.75,16.75 2.5625,16.9375 2.375,17.125 2.5,17 Q 2.625,16.875 2.71875,16.71875 L 2.8125,16.5625 2.765625,16.640625 2.71875,16.71875 3.015625,17.015625 3.3125,17.3125 3.375,17.25 3.4375,17.1875 3.3125,17.3125 Q 3.1875,17.4375 3.125,17.625 L 3.0625,17.8125 3.15625,17.53125 3.25,17.25 3.125,17.625 3,18 2.625,18.125 2.25,18.25 2.53125,18.15625 2.8125,18.0625 2.625,18.125 Q 2.4375,18.1875 2.3125,18.3125 L 2.1875,18.4375 2.25,18.375 2.3125,18.3125 2.03125,18.03125 1.75,17.75 2,17.5 M 1.9375,17.5625 1.75,17.75 1.6875,17.8125 1.625,17.875 1.75,17.75 Q 1.875,17.625 2,17.5 l 0.125,-0.125 -0.1875,0.1875"
         style="fill:#2b3161;fill-opacity:0.16470588" />
      <path
         id="path4016"
         d="m 3.125,17.625 q 0.125,-0.375 0.5,-0.5 L 4,17 v 0.5 Q 4,18 3.5,18 H 3 l 0.125,-0.375"
         style="fill:#2b2f62;fill-opacity:0.47058824" />
      <path
         id="path4018"
         d="M 4,17.5 V 17 H 4.5 5 V 17.5 18 18.5 19 H 4.5 Q 4,19 4,19.5 V 20 H 3.5 Q 3,20 3,20.5 V 21 H 2.5 2 V 20.5 20 19.5 19 H 2.5 Q 3,19 3,18.5 V 18 H 3.5 Q 4,18 4,17.5"
         style="fill:#2b2f62;fill-opacity:0.49019608" />
      <path
         id="path4020"
         d="M 5,17.5 V 17 H 5.5 6 V 17.5 18 H 5.5 5 v -0.5"
         style="fill:#2a2e61;fill-opacity:0.4745098" />
      <path
         id="path4022"
         d="M 6,17.5 V 17 H 6.5 7 V 17.5 18 H 6.5 6 v -0.5"
         style="fill:#2c2e61;fill-opacity:0.41176471" />
      <path
         id="path4024"
         d="M 7,17.5 V 17 H 7.5 8 V 17.5 18 H 7.5 7 v -0.5"
         style="fill:#2a2e61;fill-opacity:0.4745098" />
      <path
         id="path4026"
         d="M 8,17.5 V 17 H 8.5 9 v 0.5 Q 9,18 9.5,18 H 10 v 0.5 Q 10,19 10.5,19 H 11 V 19.5 20 20.5 21 H 10.5 10 V 20.5 Q 10,20 9.5,20 H 9 V 19.5 Q 9,19 8.5,19 H 8 V 18.5 18 17.5"
         style="fill:#2b2f62;fill-opacity:0.49019608" />
      <path
         id="path4028"
         d="M 9,17.5 V 17 l 0.375,0.125 q 0.375,0.125 0.5,0.5 L 10,18 H 9.5 Q 9,18 9,17.5"
         style="fill:#2b2f62;fill-opacity:0.47058824" />
      <path
         id="path4030"
         d="M 9.875,17.625 9.75,17.25 9.84375,17.53125 9.9375,17.8125 9.875,17.625 Q 9.8125,17.4375 9.6875,17.3125 l -0.125,-0.125 0.0625,0.0625 0.0625,0.0625 0.296875,-0.296875 0.296875,-0.296875 -0.04687,-0.07813 -0.04687,-0.07813 0.09375,0.15625 Q 10.375,16.875 10.5,17 L 10.625,17.125 10.4375,16.9375 10.25,16.75 10.5,17 q 0.25,0.25 0.5,0.5 l 0.25,0.25 -0.28125,0.28125 -0.28125,0.28125 0.0625,0.0625 0.0625,0.0625 -0.125,-0.125 Q 10.5625,18.1875 10.375,18.125 L 10.1875,18.0625 10.46875,18.15625 10.75,18.25 10.375,18.125 10,18 9.875,17.625 M 11.3125,17.8125 11.25,17.75 11.0625,17.5625 10.875,17.375 11,17.5 q 0.125,0.125 0.25,0.25 l 0.125,0.125 -0.0625,-0.0625"
         style="fill:#2c2c64;fill-opacity:0.16078431" />
      <path
         id="path4032"
         d="M 1,18.5 Q 1.25,18.25 1.5,18 L 1.75,17.75 2.03125,18.03125 2.3125,18.3125 2.375,18.25 2.4375,18.1875 2.3125,18.3125 Q 2.1875,18.4375 2.125,18.625 L 2.0625,18.8125 2.15625,18.53125 2.25,18.25 2.125,18.625 2,19 1.625,19.125 1.25,19.25 1.53125,19.15625 1.8125,19.0625 1.625,19.125 Q 1.4375,19.1875 1.3125,19.3125 L 1.1875,19.4375 1.25,19.375 1.3125,19.3125 1.015625,19.015625 0.71875,18.71875 0.640625,18.765625 0.5625,18.8125 0.71875,18.71875 Q 0.875,18.625 1,18.5 L 1.125,18.375 0.9375,18.5625 0.75,18.75 1,18.5 M 1.8125,17.6875 1.75,17.75 1.5625,17.9375 1.375,18.125 1.5,18 q 0.125,-0.125 0.25,-0.25 l 0.125,-0.125 -0.0625,0.0625"
         style="fill:#29295c;fill-opacity:0.09803922" />
      <path
         id="path4034"
         d="m 2.125,18.625 q 0.125,-0.375 0.5,-0.5 L 3,18 v 0.5 Q 3,19 2.5,19 H 2 l 0.125,-0.375"
         style="fill:#2a2f60;fill-opacity:0.42745098" />
      <path
         id="path4036"
         d="M 5,18.5 V 18 H 5.5 6 l -0.125,0.375 q -0.125,0.375 -0.5,0.5 L 5,19 v -0.5"
         style="fill:#2b2e61;fill-opacity:0.32941176" />
      <path
         id="path4038"
         d="M 5.875,18.375 6,18 H 6.5 7 L 7.125,18.375 7.25,18.75 7.15625,18.46875 7.0625,18.1875 7.125,18.375 q 0.0625,0.1875 0.1875,0.3125 l 0.125,0.125 L 7.375,18.75 7.3125,18.6875 7.03125,19 6.75,19.3125 6.8125,19.34375 6.875,19.375 6.75,19.3125 Q 6.625,19.25 6.5,19.25 H 6.375 6.5625 6.75 6.5 6.25 6.4375 6.625 6.5 q -0.125,0 -0.25,0.0625 L 6.125,19.375 6.1875,19.34375 6.25,19.3125 5.96875,19 5.6875,18.6875 5.625,18.75 5.5625,18.8125 5.6875,18.6875 Q 5.8125,18.5625 5.875,18.375 L 5.9375,18.1875 5.84375,18.46875 5.75,18.75 5.875,18.375"
         style="fill:#272762;fill-opacity:0.05098039" />
      <path
         id="path4040"
         d="M 7.125,18.375 7,18 H 7.5 8 V 18.5 19 L 7.625,18.875 q -0.375,-0.125 -0.5,-0.5"
         style="fill:#2b3161;fill-opacity:0.32941176" />
      <path
         id="path4042"
         d="M 10,18.5 V 18 l 0.375,0.125 q 0.375,0.125 0.5,0.5 L 11,19 H 10.5 Q 10,19 10,18.5"
         style="fill:#2b2f61;fill-opacity:0.42352941" />
      <path
         id="path4044"
         d="M 10.875,18.625 10.75,18.25 10.84375,18.53125 10.9375,18.8125 10.875,18.625 q -0.0625,-0.1875 -0.1875,-0.3125 l -0.125,-0.125 0.0625,0.0625 0.0625,0.0625 0.28125,-0.28125 L 11.25,17.75 11.5,18 q 0.25,0.25 0.5,0.5 L 12.25,18.75 12.0625,18.5625 11.875,18.375 12,18.5 q 0.125,0.125 0.28125,0.21875 l 0.15625,0.09375 -0.07813,-0.04687 -0.07813,-0.04687 -0.296875,0.296875 -0.296875,0.296875 0.0625,0.0625 0.0625,0.0625 -0.125,-0.125 Q 11.5625,19.1875 11.375,19.125 L 11.1875,19.0625 11.46875,19.15625 11.75,19.25 11.375,19.125 11,19 10.875,18.625 M 11.4375,17.9375 11.25,17.75 11.1875,17.6875 11.125,17.625 11.25,17.75 q 0.125,0.125 0.25,0.25 l 0.125,0.125 -0.1875,-0.1875"
         style="fill:#29295c;fill-opacity:0.09803922" />
      <path
         id="path4046"
         d="M 0,19.5 V 19 L 0.375,18.875 0.75,18.75 0.46875,18.84375 0.1875,18.9375 0.375,18.875 Q 0.5625,18.8125 0.71875,18.71875 L 0.875,18.625 0.796875,18.671875 0.71875,18.71875 1.015625,19.015625 1.3125,19.3125 1.375,19.25 1.4375,19.1875 1.3125,19.3125 Q 1.1875,19.4375 1.125,19.625 L 1.0625,19.8125 1.15625,19.53125 1.25,19.25 1.125,19.625 1,20 H 0.5 0 v -0.5"
         style="fill:#333366;fill-opacity:0.03921569" />
      <path
         id="path4048"
         d="m 1.125,19.625 q 0.125,-0.375 0.5,-0.5 L 2,19 V 19.5 20 H 1.5 1 l 0.125,-0.375"
         style="fill:#2a305f;fill-opacity:0.35686275" />
      <path
         id="path4050"
         d="M 4,19.5 Q 4,19 4.5,19 H 5 l -0.125,0.375 q -0.125,0.375 -0.5,0.5 L 4,20 v -0.5"
         style="fill:#2c2f60;fill-opacity:0.38431373" />
      <path
         id="path4052"
         d="M 4.875,19.375 5,19 5.375,18.875 5.75,18.75 5.46875,18.84375 5.1875,18.9375 5.375,18.875 Q 5.5625,18.8125 5.6875,18.6875 L 5.8125,18.5625 5.75,18.625 5.6875,18.6875 5.96875,19 6.25,19.3125 6.3125,19.28125 6.375,19.25 6.25,19.3125 Q 6.125,19.375 6,19.5 L 5.875,19.625 6.0625,19.4375 6.25,19.25 6,19.5 Q 5.75,19.75 5.5,20 L 5.25,20.25 4.96875,19.96875 4.6875,19.6875 4.625,19.75 4.5625,19.8125 4.6875,19.6875 Q 4.8125,19.5625 4.875,19.375 L 4.9375,19.1875 4.84375,19.46875 4.75,19.75 4.875,19.375 M 5.1875,20.3125 5.25,20.25 5.4375,20.0625 5.625,19.875 5.5,20 q -0.125,0.125 -0.25,0.25 l -0.125,0.125 0.0625,-0.0625"
         style="fill:#303060;fill-opacity:0.0627451" />
      <path
         id="path4054"
         d="m 6,19.5 q 0.25,-0.25 0.5,-0.25 0.25,0 0.5,0.25 0.25,0.25 0.5,0.5 0.25,0.25 0.5,0.5 0.25,0.25 0.5,0.5 0.25,0.25 0.375,0.625 L 9,22 H 8.5 8 L 7.875,21.625 Q 7.75,21.25 7.5,21.25 H 7.25 7.4375 7.625 7.5 q -0.125,0 -0.21875,0.09375 L 7.1875,21.4375 7.234375,21.390625 7.28125,21.34375 6.984375,21.015625 6.6875,20.6875 6.65625,20.71875 6.625,20.75 6.6875,20.6875 Q 6.75,20.625 6.75,20.5 V 20.375 20.5625 20.75 20.5 q 0,-0.25 -0.25,-0.25 -0.25,0 -0.25,0.25 V 20.75 20.5625 20.375 20.5 q 0,0.125 0.0625,0.1875 L 6.375,20.75 6.34375,20.71875 6.3125,20.6875 6.015625,21.015625 5.71875,21.34375 5.765625,21.390625 5.8125,21.4375 5.71875,21.34375 Q 5.625,21.25 5.5,21.25 H 5.375 5.5625 5.75 5.5 q -0.25,0 -0.375,0.375 L 5,22 H 4.5 4 L 4.125,21.625 Q 4.25,21.25 4.5,21 4.75,20.75 5,20.5 5.25,20.25 5.5,20 5.75,19.75 6,19.5"
         style="fill:#000000;fill-opacity:0" />
      <path
         id="path4056"
         d="M 7,19.5 6.75,19.25 6.9375,19.4375 7.125,19.625 7,19.5 Q 6.875,19.375 6.75,19.3125 L 6.625,19.25 6.6875,19.28125 6.75,19.3125 7.03125,19 7.3125,18.6875 7.25,18.625 7.1875,18.5625 l 0.125,0.125 q 0.125,0.125 0.3125,0.1875 L 7.8125,18.9375 7.53125,18.84375 7.25,18.75 7.625,18.875 8,19 8.125,19.375 8.25,19.75 8.15625,19.46875 8.0625,19.1875 8.125,19.375 q 0.0625,0.1875 0.1875,0.3125 l 0.125,0.125 L 8.375,19.75 8.3125,19.6875 8.03125,19.96875 7.75,20.25 7.5,20 Q 7.25,19.75 7,19.5 M 7.5625,20.0625 7.75,20.25 7.8125,20.3125 7.875,20.375 7.75,20.25 Q 7.625,20.125 7.5,20 l -0.125,-0.125 0.1875,0.1875"
         style="fill:#303060;fill-opacity:0.0627451" />
      <path
         id="path4058"
         d="M 8.125,19.375 8,19 H 8.5 Q 9,19 9,19.5 V 20 L 8.625,19.875 q -0.375,-0.125 -0.5,-0.5"
         style="fill:#2c2f60;fill-opacity:0.38431373" />
      <path
         id="path4060"
         d="M 11,19.5 V 19 l 0.375,0.125 q 0.375,0.125 0.5,0.5 L 12,20 H 11.5 11 v -0.5"
         style="fill:#2b3060;fill-opacity:0.35294118" />
      <path
         id="path4062"
         d="M 11.875,19.625 11.75,19.25 11.84375,19.53125 11.9375,19.8125 11.875,19.625 q -0.0625,-0.1875 -0.1875,-0.3125 l -0.125,-0.125 0.0625,0.0625 0.0625,0.0625 0.296875,-0.296875 L 12.28125,18.71875 12.20312,18.67188 12.125,18.625 12.28125,18.71875 Q 12.4375,18.8125 12.625,18.875 L 12.8125,18.9375 12.53125,18.84375 12.25,18.75 12.625,18.875 13,19 V 19.5 20 H 12.5 12 l -0.125,-0.375"
         style="fill:#333366;fill-opacity:0.03921569" />
      <path
         id="path4064"
         d="M 0,20.5 V 20 H 0.5 1 V 20.5 21 H 0.5 0 v -0.5"
         style="fill:#293060;fill-opacity:0.14509804" />
      <path
         id="path4066"
         d="M 1,20.5 V 20 H 1.5 2 V 20.5 21 H 1.5 1 v -0.5"
         style="fill:#2b2f61;fill-opacity:0.48627451" />
      <path
         id="path4068"
         d="M 3,20.5 Q 3,20 3.5,20 H 4 l -0.125,0.375 q -0.125,0.375 -0.5,0.5 L 3,21 v -0.5"
         style="fill:#2b3060;fill-opacity:0.41568627" />
      <path
         id="path4070"
         d="M 3.875,20.375 4,20 4.375,19.875 4.75,19.75 4.46875,19.84375 4.1875,19.9375 4.375,19.875 Q 4.5625,19.8125 4.6875,19.6875 L 4.8125,19.5625 4.75,19.625 4.6875,19.6875 4.96875,19.96875 5.25,20.25 5,20.5 Q 4.75,20.75 4.5,21 L 4.25,21.25 4.4375,21.0625 4.625,20.875 4.5,21 Q 4.375,21.125 4.28125,21.28125 L 4.1875,21.4375 4.234375,21.359375 4.28125,21.28125 3.984375,20.984375 3.6875,20.6875 3.625,20.75 3.5625,20.8125 3.6875,20.6875 Q 3.8125,20.5625 3.875,20.375 L 3.9375,20.1875 3.84375,20.46875 3.75,20.75 3.875,20.375 M 5.0625,20.4375 5.25,20.25 5.3125,20.1875 5.375,20.125 5.25,20.25 Q 5.125,20.375 5,20.5 l -0.125,0.125 0.1875,-0.1875"
         style="fill:#2b2b60;fill-opacity:0.09411765" />
      <path
         id="path4072"
         d="m 6.25,20.5 q 0,-0.25 0.25,-0.25 0.25,0 0.25,0.25 0,0.25 -0.25,0.25 -0.25,0 -0.25,-0.25"
         style="fill:#000040;fill-opacity:0.01568627" />
      <path
         id="path4074"
         d="M 8,20.5 7.75,20.25 8.03125,19.96875 8.3125,19.6875 8.25,19.625 8.1875,19.5625 l 0.125,0.125 q 0.125,0.125 0.3125,0.1875 L 8.8125,19.9375 8.53125,19.84375 8.25,19.75 8.625,19.875 9,20 9.125,20.375 9.25,20.75 9.15625,20.46875 9.0625,20.1875 9.125,20.375 q 0.0625,0.1875 0.1875,0.3125 l 0.125,0.125 L 9.375,20.75 9.3125,20.6875 9.015625,20.984375 8.71875,21.28125 8.765625,21.359375 8.8125,21.4375 8.71875,21.28125 Q 8.625,21.125 8.5,21 L 8.375,20.875 8.5625,21.0625 8.75,21.25 8.5,21 Q 8.25,20.75 8,20.5 M 7.6875,20.1875 7.75,20.25 7.9375,20.4375 8.125,20.625 8,20.5 Q 7.875,20.375 7.75,20.25 l -0.125,-0.125 0.0625,0.0625"
         style="fill:#2b2b60;fill-opacity:0.09411765" />
      <path
         id="path4076"
         d="M 9.125,20.375 9,20 H 9.5 Q 10,20 10,20.5 V 21 L 9.625,20.875 q -0.375,-0.125 -0.5,-0.5"
         style="fill:#2b3060;fill-opacity:0.41568627" />
      <path
         id="path4078"
         d="M 11,20.5 V 20 H 11.5 12 V 20.5 21 H 11.5 11 v -0.5"
         style="fill:#2b2f61;fill-opacity:0.48627451" />
      <path
         id="path4080"
         d="M 12,20.5 V 20 H 12.5 13 V 20.5 21 H 12.5 12 v -0.5"
         style="fill:#2b3263;fill-opacity:0.14117647" />
      <path
         id="path4082"
         d="M 0,21.5 V 21 H 0.5 1 V 21.5 22 H 0.5 0 v -0.5"
         style="fill:#272762;fill-opacity:0.05098039" />
      <path
         id="path4084"
         d="M 1,21.5 V 21 H 1.5 2 V 21.5 22 H 1.5 1 v -0.5"
         style="fill:#2b2e62;fill-opacity:0.36862745" />
      <path
         id="path4086"
         d="M 2,21.5 V 21 H 2.5 3 V 21.5 22 H 2.5 2 v -0.5"
         style="fill:#2c3060;fill-opacity:0.45882353" />
      <path
         id="path4088"
         d="M 3,21.5 V 21 L 3.375,20.875 3.75,20.75 3.46875,20.84375 3.1875,20.9375 3.375,20.875 Q 3.5625,20.8125 3.6875,20.6875 L 3.8125,20.5625 3.75,20.625 3.6875,20.6875 3.984375,20.984375 4.28125,21.28125 4.328125,21.203125 4.375,21.125 4.28125,21.28125 Q 4.1875,21.4375 4.125,21.625 L 4.0625,21.8125 4.15625,21.53125 4.25,21.25 4.125,21.625 4,22 H 3.5 3 v -0.5"
         style="fill:#293060;fill-opacity:0.14509804" />
      <path
         id="path4090"
         d="M 5.125,21.625 Q 5.25,21.25 5.5,21.25 q 0.25,0 0.375,0.375 L 6,22 H 5.5 5 l 0.125,-0.375"
         style="fill:#000080;fill-opacity:0.00784314" />
      <path
         id="path4092"
         d="M 5.875,21.625 5.75,21.25 5.84375,21.53125 5.9375,21.8125 5.875,21.625 Q 5.8125,21.4375 5.71875,21.34375 L 5.625,21.25 5.671875,21.296875 5.71875,21.34375 6.015625,21.015625 6.3125,20.6875 6.28125,20.65625 6.25,20.625 6.3125,20.6875 Q 6.375,20.75 6.5,20.75 H 6.625 6.4375 6.25 6.5 6.75 6.5625 6.375 6.5 q 0.125,0 0.1875,-0.0625 L 6.75,20.625 6.71875,20.65625 6.6875,20.6875 6.984375,21.015625 7.28125,21.34375 7.328125,21.296875 7.375,21.25 7.28125,21.34375 Q 7.1875,21.4375 7.125,21.625 L 7.0625,21.8125 7.15625,21.53125 7.25,21.25 7.125,21.625 7,22 H 6.5 6 L 5.875,21.625"
         style="fill:#000000;fill-opacity:0.00392157" />
      <path
         id="path4094"
         d="M 7.125,21.625 Q 7.25,21.25 7.5,21.25 q 0.25,0 0.375,0.375 L 8,22 H 7.5 7 l 0.125,-0.375"
         style="fill:#000080;fill-opacity:0.00784314" />
      <path
         id="path4096"
         d="M 8.875,21.625 8.75,21.25 8.84375,21.53125 8.9375,21.8125 8.875,21.625 Q 8.8125,21.4375 8.71875,21.28125 L 8.625,21.125 8.671875,21.203125 8.71875,21.28125 9.015625,20.984375 9.3125,20.6875 9.25,20.625 9.1875,20.5625 l 0.125,0.125 q 0.125,0.125 0.3125,0.1875 L 9.8125,20.9375 9.53125,20.84375 9.25,20.75 9.625,20.875 10,21 V 21.5 22 H 9.5 9 L 8.875,21.625"
         style="fill:#293060;fill-opacity:0.14509804" />
      <path
         id="path4098"
         d="M 10,21.5 V 21 H 10.5 11 V 21.5 22 H 10.5 10 v -0.5"
         style="fill:#2c3060;fill-opacity:0.45882353" />
      <path
         id="path4100"
         d="M 11,21.5 V 21 H 11.5 12 V 21.5 22 H 11.5 11 v -0.5"
         style="fill:#2b2e5f;fill-opacity:0.36862745" />
      <path
         id="path4102"
         d="M 12,21.5 V 21 H 12.5 13 V 21.5 22 H 12.5 12 v -0.5"
         style="fill:#272762;fill-opacity:0.05098039" />
    </g>
  </g>
</svg>
